Coordinates
version=1
nRows=19
nColumns=33
inDegrees=yes

Units are S.I. units (second, meters, Newtons, ...)
Angles are in degrees.

endheader
time	ground_thorax_rot_x	ground_thorax_rot_y	ground_thorax_rot_z	ground_thorax_tx	ground_thorax_ty	ground_thorax_tz	clav_prot_r	clav_elev_r	scapula_abduction_r	scapula_elevation_r	scapula_upward_rot_r	scapula_winging_r	shoulder_elv_r	plane_of_elev_r	axial_rot_r	elbow_flexion_r	pro_sup_r	wrist_flex_r	wrist_dev_r	clav_prot_l	clav_elev_l	scapula_abduction_l	scapula_elevation_l	scapula_upward_rot_l	scapula_winging_l	shoulder_elv_l	plane_of_elev_l	axial_rot_l	elbow_flexion_l	pro_sup_l	wrist_flex_l	wrist_dev_l
      6.59000000	     34.82493330	     16.37919430	     19.35469439	   -232.04671384	    836.80934262	     -6.22904057	     11.36972223	     38.67065714	     37.17402927	     45.00000000	    -32.44882752	  -1889.46412708	  -2273.20751863	    147.12344715	   -125.17960133	   1466.94864716	    130.10371312	     13.63721467	      4.61553266	      8.82534474	    -45.00000000	    -38.38549201	     45.00000000	    -45.00000000	   2258.36408009	  -4770.35189423	    134.91584339	   -179.99999979	    371.79673547	     43.15858618	      5.06363421	    -23.59285236
      6.60000000	     34.81793789	     16.23068758	     19.11868387	   -233.98915871	    837.28171211	     -6.19014097	     11.35539207	     38.63011731	     37.04943665	     45.00000000	    -32.66849044	  -1889.46287472	  -2273.07301707	    147.11667553	   -125.05421200	   1466.95856259	    129.90769337	     13.63680528	      4.65711981	      8.83786163	    -45.00000000	    -38.37188923	     45.00000000	    -45.00000000	   2258.44057430	  -4770.31186014	    135.01771964	   -179.99999979	    371.79722536	     43.54858128	      4.91175048	    -23.56426538
      6.61000000	     34.82721389	     16.09509766	     18.85934374	   -235.87545898	    837.70273340	     -6.15100457	     11.33706067	     38.55605689	     37.02760757	     45.00000000	    -32.86510050	  -1889.48444908	  -2273.10278045	    147.16744189	   -125.05805682	   1466.90578329	    129.64201389	     13.56481031	      4.77015109	      8.91162597	    -45.00000000	    -38.40615159	     45.00000000	    -45.00000000	   2258.58846920	  -4770.34454484	    135.02733172	   -179.99999979	    371.82190638	     44.02919922	      4.78915302	    -23.56908442
      6.62000000	     34.82444572	     15.96696614	     18.65745559	   -237.69699844	    838.07703986	     -6.10763935	     11.32808415	     38.51648980	     36.88163613	     45.00000000	    -33.09260324	  -1889.45237965	  -2272.98642133	    147.12741622	   -124.97387275	   1466.86549498	    129.29022471	     13.57345952	      4.82637389	      8.93099926	    -45.00000000	    -38.36976797	     45.00000000	    -45.00000000	   2258.65297962	  -4770.31829478	    135.12254450	   -179.99999979	    371.80890560	     44.55699840	      4.62871435	    -23.54374418
      6.63000000	     34.81774524	     15.79853693	     18.40911155	   -239.45122167	    838.40861565	     -6.05970995	     11.30275069	     38.44096173	     36.87798805	     45.00000000	    -33.26576460	  -1889.47585578	  -2273.01062589	    147.15962780	   -124.98355462	   1466.84273863	    128.86228570	     13.51151659	      4.91958935	      8.99117032	    -45.00000000	    -38.41353929	     45.00000000	    -45.00000000	   2258.81027311	  -4770.37560964	    135.12986884	   -179.99999979	    371.81746857	     45.13442396	      4.50556752	    -23.55044798
      6.64000000	     34.79154020	     15.63841326	     18.25194598	   -241.13822722	    838.70142406	     -6.00775732	     11.30318519	     38.42168218	     36.66511999	     45.00000000	    -33.47946079	  -1889.41259392	  -2272.88276528	    147.02756883	   -124.87712813	   1466.84703594	    128.36802060	     13.52589701	      4.95410210	      9.00420132	    -45.00000000	    -38.31897114	     45.00000000	    -45.00000000	   2258.86747295	  -4770.34952242	    135.25405128	   -179.99999979	    371.80836385	     45.71387225	      4.34514594	    -23.53159180
      6.65000000	     34.79807049	     15.52680443	     18.09253205	   -242.76146761	    838.95745428	     -5.95522326	     11.25381357	     38.30830809	     36.79639792	     45.00000000	    -33.62706575	  -1889.49618691	  -2272.97658617	    147.21442542	   -124.98497271	   1466.73462380	    127.83322131	     13.45380617	      5.07924707	      9.06138037	    -45.00000000	    -38.42702192	     45.00000000	    -45.00000000	   2259.08818565	  -4770.49531070	    135.27262213	   -179.99999979	    371.84474338	     46.32671144	      4.22714846	    -23.54384437
      6.66000000	     34.73301341	     15.56648941	     18.06001724	   -244.32366440	    839.17952982	     -5.90195625	     11.32522682	     38.27779825	     36.66706389	     45.00000000	    -34.01222863	  -1889.41628104	  -2272.87473722	    147.24344264	   -124.94928981	   1466.59000648	    127.14496076	     13.50542439	      5.11214510	      9.14142336	    -45.00000000	    -38.45416463	     45.00000000	    -45.00000000	   2259.07170676	  -4770.50776961	    135.48207582	   -179.99999979	    371.82743406	     47.03776780	      4.04844125	    -23.49926540
      6.67000000	     34.74776704	     15.32518286	     17.73989886	   -245.82548080	    839.36873984	     -5.84820919	     11.25086574	     38.22242882	     36.55123174	     45.00000000	    -34.13781349	  -1889.38284483	  -2272.90507646	    147.15207073	   -125.02856580	   1466.48322723	    126.48496923	     13.48419237	      5.20321112	      9.15917865	    -45.00000000	    -38.39306035	     45.00000000	    -45.00000000	   2259.17565312	  -4770.48237754	    135.35472250	   -179.99999979	    371.72860495	     47.72297712	      3.94063461	    -23.50206413
      6.68000000	     34.73621043	     15.19224138	     17.59805894	   -247.27451799	    839.52568280	     -5.79428853	     11.27491630	     38.18834241	     36.40952117	     45.00000000	    -34.39720877	  -1889.35598445	  -2272.67708583	    147.06456989	   -124.90906452	   1466.62215720	    125.79269478	     13.50074710	      5.14131024	      9.14594923	    -45.00000000	    -38.40835451	     45.00000000	    -45.00000000	   2259.20722504	  -4770.52477290	    135.52228253	   -179.99999979	    371.77219978	     48.34786721	      3.77935133	    -23.47453937
      6.69000000	     34.71446772	     15.05751467	     17.47985559	   -248.67074056	    839.64994275	     -5.74103366	     11.23063317	     38.09562344	     36.44309175	     45.00000000	    -34.50145521	  -1889.38056826	  -2272.89921146	    147.14794743	   -125.07136103	   1466.33396508	    125.11927714	     13.44134311	      5.31347449	      9.23346178	    -45.00000000	    -38.36479495	     45.00000000	    -45.00000000	   2259.43274576	  -4770.56713050	    135.45099786	   -179.99999979	    371.75588312	     48.99907543	      3.67421458	    -23.48205197
      6.70000000	     34.69259918	     15.02450195	     17.41549893	   -250.01605419	    839.74143454	     -5.68970029	     11.26576173	     38.12588330	     36.20171599	     45.00000000	    -34.70663888	  -1889.25715619	  -2272.65391605	    147.14123893	   -124.87619875	   1466.42022273	    124.34893352	     13.52738637	      5.19907988	      9.20457021	    -45.00000000	    -38.37380942	     45.00000000	    -45.00000000	   2259.32060101	  -4770.61735395	    135.73388603	   -179.99999979	    371.73948738	     49.64612331	      3.50701169	    -23.42040599
      6.71000000	     34.71476660	     14.76922628	     17.19605565	   -251.30953415	    839.80082670	     -5.64212537	     11.18387249	     37.94987047	     36.33971094	     45.00000000	    -34.91888936	  -1889.39630165	  -2272.88496391	    147.06157074	   -125.05932766	   1466.22267445	    123.65736575	     13.37526679	      5.40340719	      9.32122523	    -45.00000000	    -38.34360272	     45.00000000	    -45.00000000	   2259.68546500	  -4770.69342282	    135.46099362	   -179.99999979	    371.72971097	     50.28472062	      3.43472237	    -23.45909445
      6.72000000	     34.65233366	     14.91727715	     17.33220065	   -252.55028133	    839.82873647	     -5.60064547	     11.28562740	     38.10612904	     35.91415205	     45.00000000	    -35.01636035	  -1889.11439539	  -2272.49419829	    147.19305966	   -124.80218255	   1466.30195963	    122.89941043	     13.60425709	      5.17586119	      9.21279937	    -45.00000000	    -38.30774506	     45.00000000	    -45.00000000	   2259.33509138	  -4770.74174611	    136.05922811	   -179.99999979	    371.74372820	     50.88418399	      3.24113725	    -23.36778901
      6.73000000	     34.65423074	     14.84566338	     17.23655856	   -253.73982125	    839.82604142	     -5.56836702	     11.28033497	     37.91031894	     36.18948995	     45.00000000	    -35.55771627	  -1889.32738059	  -2272.66897654	    147.19237498	   -124.99939920	   1466.09632161	    122.05840548	     13.44758907	      5.36100503	      9.41626543	    -45.00000000	    -38.41086068	     45.00000000	    -45.00000000	   2259.70035873	  -4770.87624897	    135.84670457	   -179.99999979	    371.78228472	     51.63343480	      3.13228420	    -23.37587358
      6.74000000	     34.65136617	     14.70696688	     17.07014651	   -254.87828878	    839.79272446	     -5.54811089	     11.21771621	     37.85293252	     36.06587206	     45.00000000	    -35.56466941	  -1889.21545469	  -2272.68390932	    147.27092372	   -125.09504979	   1465.99855758	    121.31182842	     13.50538685	      5.35327853	      9.37700464	    -45.00000000	    -38.41466819	     45.00000000	    -45.00000000	   2259.72410808	  -4770.89219640	    135.90053108	   -179.99999979	    371.77557999	     52.29749561	      3.00703256	    -23.37578885
      6.75000000	     34.61969033	     14.61991837	     16.92823639	   -255.96733095	    839.72797923	     -5.54384879	     11.21077041	     37.82154753	     35.92875763	     45.00000000	    -35.79054358	  -1889.17140886	  -2272.71799266	    147.19223825	   -124.97811800	   1465.89582685	    120.62356398	     13.52568533	      5.38110340	      9.39691112	    -45.00000000	    -38.37852499	     45.00000000	    -45.00000000	   2259.76221944	  -4770.86167537	    135.87852470	   -179.99999979	    371.71562940	     52.91045566	      2.89248191	    -23.35231485
      6.76000000	     34.62262526	     14.56534297	     16.92894736	   -257.01342229	    839.63189916	     -5.55474332	     11.21864804	     37.74222550	     35.81866831	     45.00000000	    -36.11131677	  -1889.16292833	  -2272.61375481	    147.09144043	   -125.00606289	   1465.89926327	    120.01328993	     13.52014606	      5.38052259	      9.43980945	    -45.00000000	    -38.26485118	     45.00000000	    -45.00000000	   2259.84769735	  -4770.92327690	    135.89253314	   -179.99999979	    371.64213509	     53.50376908	      2.78622876	    -23.34300845
      6.77000000	     34.60271795	     14.51930118	     16.91456953	   -258.01392532	    839.50591183	     -5.57622001	     11.21438809	     37.67790432	     35.78710338	     45.00000000	    -36.27245785	  -1889.11540665	  -2272.68293590	    147.16016708	   -125.10192759	   1465.73009035	    119.44838206	     13.55006574	      5.42508103	      9.44522706	    -45.00000000	    -38.31362840	     45.00000000	    -45.00000000	   2259.93513045	  -4771.02899829	    136.01091018	   -179.99999979	    371.69445924	     54.08446985	      2.66098693	    -23.35696172
